<?xml version="1.0" standalone="no"?>
<!DOCTYPE svg PUBLIC "-//W3C//DTD SVG 20010904//EN"
 "http://www.w3.org/TR/2001/REC-SVG-20010904/DTD/svg10.dtd">
<svg version="1.0" xmlns="http://www.w3.org/2000/svg"
 width="880.000000pt" height="980.000000pt" viewBox="0 0 880.000000 980.000000"
 preserveAspectRatio="xMidYMid meet">

<g transform="translate(0.000000,980.000000) scale(0.100000,-0.100000)"
fill="#000000" stroke="none">
<path d="M3151 9789 c-718 -75 -1367 -524 -1691 -1169 -413 -821 -253 -1820
394 -2465 157 -156 340 -292 519 -385 l87 -45 -2 -149 -3 -148 -190 -48 c-284
-72 -475 -142 -692 -255 -369 -192 -665 -449 -900 -781 -327 -462 -526 -1052
-612 -1814 -36 -318 -45 -514 -46 -965 l0 -440 28 -58 c223 -454 1437 -749
3487 -847 118 -6 411 -13 650 -15 377 -5 430 -3 400 9 -125 49 -227 125 -293
219 -83 117 -550 940 -574 1010 -50 149 -37 319 35 467 48 98 157 209 264 269
l76 43 0 207 0 206 -85 50 c-111 64 -209 167 -256 267 -51 106 -61 150 -61
273 0 164 12 190 314 716 144 250 272 468 285 484 134 179 358 274 572 244 92
-13 174 -42 267 -97 l69 -40 67 44 c37 23 114 68 173 99 l106 56 3 81 3 81
-135 90 c-145 96 -415 233 -573 292 -120 44 -308 98 -442 128 l-100 22 -3 150
-2 150 77 40 c308 161 593 418 794 717 170 253 288 557 335 869 24 157 24 453
0 609 -109 714 -542 1307 -1181 1620 -359 176 -771 250 -1164 209z"/>
<path d="M5967 4853 c-4 -3 -7 -129 -7 -279 l0 -273 -57 -16 c-283 -79 -585
-251 -794 -452 l-46 -44 -234 135 c-128 75 -236 136 -239 136 -11 -1 -481
-830 -476 -839 4 -5 110 -69 237 -142 220 -126 231 -133 225 -158 -52 -234
-58 -274 -63 -436 -6 -189 3 -288 44 -458 14 -60 21 -112 17 -117 -5 -5 -110
-67 -234 -138 -124 -72 -225 -137 -225 -144 0 -17 467 -828 477 -828 4 0 112
60 240 134 l233 134 65 -62 c196 -184 472 -343 734 -422 l96 -28 0 -278 0
-278 488 2 487 3 3 275 2 275 82 25 c270 81 552 241 748 427 l66 61 229 -133
c127 -74 235 -134 240 -134 13 -1 489 828 481 837 -4 3 -109 66 -234 138 -259
150 -237 121 -204 279 58 275 57 479 -4 763 -16 72 -23 127 -18 131 5 5 106
64 224 132 118 67 221 128 228 134 11 10 -33 91 -223 421 -130 225 -240 413
-244 417 -4 4 -113 -53 -241 -127 l-233 -135 -80 71 c-216 190 -413 305 -687
398 l-135 46 -3 277 -2 277 -478 0 c-263 0 -482 -3 -485 -7z m754 -1286 c353
-91 625 -309 778 -621 255 -521 95 -1143 -380 -1479 -94 -66 -256 -141 -374
-173 -134 -35 -354 -44 -494 -20 -427 75 -782 381 -916 791 -93 286 -68 622
68 890 86 172 260 364 419 463 136 84 304 146 465 172 104 16 326 5 434 -23z"/>
</g>
</svg>
